<svg version="1.1" id="Layer_1" xmlns="http://www.w3.org/2000/svg" xmlns:xlink="http://www.w3.org/1999/xlink" x="0px" y="0px"
	 width="100%" viewBox="0 0 480 336" enable-background="new 0 0 480 336" xml:space="preserve">
<path fill="#000000" opacity="1.000000" stroke="none" 
	d="
M384.985565,173.983688 
	C390.877594,175.198380 392.586884,180.746414 395.479645,184.740128 
	C403.964264,196.453995 413.509277,207.440964 420.747192,220.009354 
	C423.422485,224.654922 426.480865,228.172928 431.742401,229.666611 
	C434.365417,230.411240 435.353119,232.686905 434.961426,235.194611 
	C434.607147,237.462769 433.152130,239.475632 430.623901,239.242264 
	C419.001862,238.169525 409.432526,244.334793 399.441650,248.390289 
	C381.013123,255.870804 362.467834,263.042419 343.989380,270.389191 
	C334.881073,274.010529 325.918182,277.997589 316.887817,281.815155 
	C316.121277,282.139191 315.337189,282.709381 314.569397,282.696045 
	C309.668854,282.611206 305.250000,283.038147 302.815979,288.407196 
	C302.145264,289.886688 299.599884,290.222534 297.768585,289.899872 
	C285.879120,287.804993 273.927551,289.495392 262.013062,289.298889 
	C240.853561,288.949921 219.684311,289.208221 198.519226,289.164032 
	C195.733109,289.158234 192.776703,289.730621 190.341110,287.730377 
	C188.739365,286.414978 187.986832,288.115173 186.898468,288.600800 
	C180.520844,291.446320 176.780685,290.040833 175.197830,284.199188 
	C174.386002,281.203125 175.328873,278.564362 178.532791,279.098206 
	C186.348526,280.400482 190.269775,274.794891 194.181412,270.286407 
	C205.539032,257.195892 217.546234,244.794113 230.310043,233.095200 
	C232.366959,231.209885 234.283585,229.171494 236.277512,227.191498 
	C238.718231,228.763885 237.321808,230.009094 236.257950,231.293625 
	C226.687668,242.849136 215.869827,253.243973 205.497482,264.042023 
	C200.094864,269.666351 195.941818,276.461212 189.503281,281.110748 
	C188.844147,281.586761 188.553833,282.463501 188.990494,283.728821 
	C190.981293,284.854095 193.298706,283.728149 195.488953,283.743652 
	C223.151657,283.938995 250.815338,283.992340 278.478485,284.136536 
	C281.635254,284.152985 284.788910,284.528656 287.946808,284.680481 
	C289.248413,284.743011 290.751770,285.023041 291.428680,283.451782 
	C292.099243,281.895416 291.497223,280.551880 290.429688,279.344116 
	C287.570068,276.108917 284.909851,272.676056 281.856201,269.637482 
	C266.391510,254.249039 253.460892,236.575760 238.022232,221.170319 
	C237.177826,220.327713 236.354797,219.487579 237.189987,217.688614 
	C244.528915,220.192596 247.130798,213.922226 251.105606,209.849426 
	C254.941025,205.919449 259.017029,202.225250 262.890045,198.330734 
	C269.901855,191.280060 275.272308,182.723907 282.987854,176.317841 
	C284.937286,174.699265 286.469421,172.186340 289.579163,172.671097 
	C290.773376,174.625732 289.308258,175.730911 288.403717,176.693451 
	C283.503662,181.907623 277.994781,186.752441 273.718109,192.309402 
	C265.770203,202.636703 255.485519,210.639130 247.410629,220.740067 
	C246.425995,221.971741 246.237732,223.059402 247.185822,224.321075 
	C248.682343,226.312592 249.994476,228.477905 251.696487,230.274170 
	C266.106750,245.482376 280.434937,260.762054 293.492401,277.171234 
	C294.730347,278.726929 296.367615,278.450165 297.885651,278.963226 
	C307.154907,282.095947 314.953308,277.558746 322.903168,274.236237 
	C350.291748,262.789734 378.173035,252.553772 405.349854,240.584167 
	C409.720306,238.659271 414.353210,237.269196 418.959503,235.966873 
	C421.228149,235.325500 421.881287,234.115417 421.814026,232.035797 
	C421.730286,229.445724 419.976013,229.101471 418.006287,229.267883 
	C415.491302,229.480362 413.508698,228.260681 411.484741,227.120453 
	C396.431824,218.640213 381.377350,210.162643 366.351471,201.634689 
	C364.500671,200.584274 363.236572,200.108063 362.005859,202.571121 
	C356.553375,213.483429 348.986816,222.989609 341.731476,232.709442 
	C331.691101,246.160400 321.806335,259.727448 311.827942,273.224854 
	C310.398590,275.158295 309.261169,277.656830 305.436310,276.971436 
	C305.962341,272.458832 308.735687,269.120819 311.138947,265.817505 
	C325.986359,245.409546 342.317505,226.091324 355.898438,204.744492 
	C356.990814,203.027451 359.112244,201.965088 361.320496,200.128479 
	C348.779785,189.871964 333.527069,185.815567 321.467346,176.063461 
	C324.079529,172.990494 326.363312,174.448181 328.426544,175.589233 
	C339.188812,181.541107 349.977570,187.453140 360.578064,193.683670 
	C363.236908,195.246429 364.204681,195.143814 366.007721,192.536392 
	C370.159729,186.532089 373.534882,179.919815 378.967133,174.856659 
	C380.717041,173.225632 380.297607,171.891144 378.974304,170.145981 
	C372.340759,161.397644 365.763428,152.604324 359.324402,143.712357 
	C357.593292,141.321732 355.931274,140.787476 353.506958,142.435532 
	C345.440125,147.919464 335.524384,149.311035 327.225281,154.284531 
	C325.936523,155.056854 324.499939,155.301605 323.695282,153.922745 
	C322.554749,151.968353 324.174469,150.594818 325.567017,149.925171 
	C330.510925,147.547699 335.595398,145.463669 340.614166,143.240326 
	C344.102966,141.694778 347.598572,140.160004 351.040253,138.514053 
	C353.772461,137.207397 354.019867,135.613251 352.044403,133.064529 
	C343.686737,122.281624 335.372375,111.457901 327.340485,100.431801 
	C319.414124,89.550583 310.888702,79.096611 303.770905,67.629593 
	C301.003815,63.171734 296.340515,62.992447 292.580048,66.906807 
	C279.904602,80.100906 266.293823,92.318115 252.927689,104.792297 
	C244.940247,112.246758 237.153687,119.916451 229.169006,127.373955 
	C226.960663,129.436523 224.966125,132.193771 221.276474,131.854080 
	C220.001770,129.510666 221.798676,128.302307 222.934540,127.079559 
	C229.701202,119.795334 237.128067,113.249130 244.829865,106.946533 
	C250.472534,102.328979 255.730515,97.149498 260.637909,91.746338 
	C268.505951,83.083405 278.364838,76.618095 286.197388,67.961082 
	C288.040527,65.923973 290.825378,64.633194 291.651337,60.869198 
	C259.516022,60.869198 227.653076,60.869198 194.851334,60.869198 
	C200.997772,67.053131 206.105560,73.172371 212.190002,78.080994 
	C221.039474,85.220352 227.711334,94.585472 236.901749,101.292694 
	C237.169846,101.488358 237.419785,101.715073 237.651749,101.953064 
	C238.909378,103.243393 240.851334,104.624763 239.131073,106.507790 
	C237.617752,108.164261 235.980087,106.521042 234.821869,105.480110 
	C230.366898,101.476326 225.737930,97.606293 221.721420,93.188553 
	C215.774612,86.647720 208.891678,81.128494 202.697189,74.873535 
	C200.122269,72.273483 197.298279,69.916367 194.773071,67.271645 
	C189.904297,62.172459 184.319183,63.163605 181.935165,69.649841 
	C180.756165,72.857620 178.286484,75.171394 176.253647,77.794273 
	C168.624527,87.637703 161.662170,97.932922 153.113785,107.151520 
	C148.171616,112.481155 144.690231,119.401428 139.968338,125.198219 
	C137.150101,128.658020 134.401978,132.174927 131.237595,136.149399 
	C141.361969,141.667160 152.104050,145.344452 162.507828,150.240982 
	C159.940781,153.806503 158.052963,152.931335 156.177307,152.174072 
	C147.576599,148.701614 138.617844,146.050629 130.594482,141.253342 
	C128.123276,139.775772 126.761711,141.148026 125.674759,142.898117 
	C120.029877,151.986893 113.193466,160.157990 106.201065,168.193985 
	C103.986458,170.739105 104.471771,172.566589 106.131592,175.209854 
	C110.108894,181.543701 115.986298,186.472549 119.118263,193.557281 
	C123.853409,192.882660 127.713043,190.389664 131.523346,188.245102 
	C141.105072,182.852173 151.180054,178.511749 160.984055,173.603012 
	C162.654999,172.766373 165.125244,172.120102 164.373306,169.424301 
	C163.706253,167.032806 162.115784,165.350220 159.357346,165.315979 
	C156.191544,165.276672 153.024521,165.288910 149.860092,165.202927 
	C148.086670,165.154724 146.323044,164.678497 146.357315,162.513702 
	C146.390991,160.386002 148.244598,159.522369 149.902740,159.901215 
	C161.132889,162.466888 167.291061,155.333054 173.546478,148.025467 
	C176.681442,144.363174 180.245499,141.066895 183.635208,137.624481 
	C185.303162,135.930588 187.449341,135.015411 189.542389,133.974182 
	C191.521194,132.989807 193.003021,133.420898 194.473511,134.883957 
	C196.003616,136.406326 196.123611,138.019104 195.177826,139.873566 
	C193.025360,144.094025 189.972870,147.567200 186.441238,150.674576 
	C183.846527,152.957565 181.128937,155.172867 180.061661,158.722763 
	C187.070724,160.805374 193.124084,158.789734 196.988281,152.947678 
	C199.141266,149.692734 202.236481,147.392136 204.811722,144.572708 
	C205.602768,143.706665 206.698227,143.151382 208.217438,144.169586 
	C208.985229,146.997910 206.613068,148.404678 204.992004,150.112579 
	C203.503601,151.680740 201.707291,152.983826 200.369202,154.661057 
	C198.337692,157.207428 198.327988,159.406128 202.294556,159.706177 
	C206.360779,160.013794 208.991806,162.388321 211.145264,165.480194 
	C211.907501,166.574615 212.505615,167.944595 210.952866,168.975342 
	C209.836685,169.716278 208.586823,169.620209 207.828964,168.528214 
	C205.122971,164.629074 199.859100,165.399292 196.713028,162.319000 
	C196.112885,161.731400 194.963806,161.467255 194.399811,162.103180 
	C190.264435,166.766083 184.201752,165.158218 178.733902,166.773819 
	C180.657837,170.541687 183.710037,172.887283 186.327972,175.561111 
	C189.133377,178.426376 191.889038,181.324844 193.988602,184.751450 
	C195.291702,186.878174 195.805359,189.225067 193.675919,191.129883 
	C191.784744,192.821579 189.642868,192.311646 187.667969,191.073822 
	C182.658554,187.933975 179.096512,183.198425 174.944580,179.148666 
	C170.972855,175.274734 168.206940,174.368713 162.739960,177.585327 
	C151.604568,184.137070 139.555588,189.120926 127.978218,194.940170 
	C110.344200,203.803650 92.799301,212.844330 75.192986,221.763245 
	C72.986443,222.881027 70.625717,223.691208 68.358284,224.693359 
	C67.217827,225.197418 65.480743,225.138901 65.531685,226.983932 
	C65.581200,228.776962 67.004128,229.282532 68.444130,229.939987 
	C78.560921,234.559113 88.663300,239.212601 98.708366,243.985443 
	C121.790375,254.952713 144.847137,265.973389 167.880630,277.042084 
	C169.894958,278.010040 172.283936,278.620117 173.690018,281.234680 
	C171.542328,283.899780 169.208450,283.036957 166.729721,281.846832 
	C152.508881,275.018921 138.299576,268.165680 124.028770,261.443359 
	C105.406021,252.671021 87.175819,243.079147 68.229630,234.969986 
	C64.280502,233.279724 60.809544,230.981293 56.190205,230.965256 
	C53.060028,230.954391 51.845890,228.007309 52.097469,225.112534 
	C52.377026,221.895813 54.413803,219.916779 57.715599,219.868973 
	C59.659386,219.840836 61.611511,220.388382 64.007751,220.743362 
	C64.590721,212.487701 70.618294,207.646530 75.245857,201.902054 
	C82.333336,193.103973 88.493240,183.579941 96.113945,175.196075 
	C98.384865,172.697754 98.186264,170.364716 96.168625,167.623428 
	C88.681816,157.451340 81.326561,147.180817 74.033699,136.868210 
	C70.015198,131.185791 65.292778,125.975273 62.619843,119.367027 
	C61.773186,117.273857 59.451870,116.448677 57.205978,116.288246 
	C53.338104,116.011932 52.011715,113.528778 52.088844,110.202774 
	C52.174004,106.530487 54.682671,105.433632 57.945404,105.787178 
	C66.775917,106.744026 73.805443,101.456665 81.380455,98.589119 
	C105.417381,89.489868 129.048004,79.321907 153.023376,70.052513 
	C159.828659,67.421448 166.341324,64.126198 173.241287,61.751118 
	C175.034042,61.134022 176.659134,60.463284 178.329803,61.995384 
	C178.327957,64.368294 176.474518,65.131737 174.943756,65.881134 
	C163.306641,71.578110 151.047180,75.772743 139.050613,80.603867 
	C127.845718,85.116150 116.641975,89.631569 105.418961,94.098488 
	C93.729012,98.751236 82.037430,103.401344 70.304901,107.945030 
	C64.786453,110.082169 63.710445,112.249969 66.349518,117.685127 
	C70.447456,126.124825 76.977676,132.938629 82.092957,140.715225 
	C87.910164,149.558945 94.338928,158.000427 101.067711,167.407837 
	C108.453484,157.931351 116.969269,149.862030 122.339081,139.105286 
	C105.887482,131.325500 89.390968,125.337059 73.279884,118.437370 
	C71.706070,117.763367 68.879433,117.934425 69.866913,115.335915 
	C70.934288,112.527191 73.668297,113.858238 75.515923,114.595558 
	C86.000214,118.779449 96.490532,122.966507 106.818481,127.516388 
	C112.246643,129.907715 118.245842,130.942963 123.145340,134.652222 
	C125.402802,136.361282 126.713615,134.064194 128.017731,132.625000 
	C134.959564,124.964142 141.406677,116.855431 146.980652,108.197311 
	C151.435104,101.278160 157.641342,95.926720 162.214050,89.133743 
	C166.932053,82.124870 172.563538,75.733765 177.732864,69.024231 
	C179.463501,66.777924 180.642334,64.368706 180.862289,61.335732 
	C181.281113,55.561127 184.525253,52.981758 189.907059,54.525513 
	C194.946762,55.971138 199.819458,54.753582 204.753937,54.765587 
	C232.585022,54.833324 260.416412,54.777042 288.247711,54.749802 
	C290.078400,54.748013 291.930237,54.793591 293.735992,54.549297 
	C302.701019,53.336498 302.305359,53.491547 305.826660,61.399937 
	C309.544586,69.749779 315.088837,77.107002 320.641876,84.346161 
	C332.978912,100.429321 345.448639,116.411797 356.941284,133.120193 
	C358.944092,136.031998 360.419281,136.614120 364.120087,134.708237 
	C372.913818,130.179474 382.136322,126.393219 391.415466,122.921417 
	C401.309937,119.219391 410.420746,113.391014 421.171051,112.373634 
	C421.358917,109.197380 419.008118,109.146172 417.540466,108.554596 
	C398.037628,100.693260 378.427979,93.093422 358.983612,85.091553 
	C343.644501,78.779106 327.938721,73.365082 312.912170,66.284744 
	C310.954041,65.362091 309.020355,64.561157 308.159973,62.365948 
	C309.728241,60.087486 311.341156,61.348759 313.021820,62.003105 
	C324.910858,66.631981 336.852844,71.126518 348.710938,75.832863 
	C362.575500,81.335533 376.297241,87.204620 390.222473,92.545799 
	C400.736938,96.578766 411.208801,100.673790 421.472534,105.314560 
	C424.268677,106.578827 427.417084,105.553352 430.391571,105.865990 
	C433.534210,106.196320 435.404816,107.945435 435.416534,111.006790 
	C435.427277,113.802673 433.571136,116.342133 430.866211,115.999535 
	C416.501648,114.180145 405.611481,123.420090 393.086456,127.382896 
	C382.838806,130.625168 373.541962,136.332947 362.294128,139.071823 
	C368.266815,149.525253 375.366638,158.738174 383.651978,168.416046 
	C396.464386,151.163589 408.812592,134.536224 421.349060,117.655319 
	C424.721039,121.353401 422.233795,123.671402 420.731262,125.751427 
	C413.134033,136.268784 405.377563,146.671249 397.654053,157.097092 
	C393.597137,162.573456 389.493347,168.015106 384.953217,173.951019 
	C378.758331,181.676941 373.481903,189.241806 368.186401,197.643570 
	C385.162537,206.973282 401.849518,216.144073 419.335815,225.754150 
	C408.902100,209.903214 397.926056,195.708084 387.230774,181.312332 
	C385.553528,179.054810 384.418091,176.832474 384.985565,173.983688 
M68.886253,218.599899 
	C71.108620,219.747726 72.672134,217.965363 74.327171,217.176880 
	C78.812378,215.039993 83.155121,212.604767 87.560883,210.300323 
	C96.632851,205.555237 105.709061,200.818268 115.537315,195.684204 
	C110.462959,188.809723 106.850510,181.774048 100.638527,176.286850 
	C96.273804,181.902954 91.995880,187.150299 88.001915,192.605560 
	C81.728386,201.174393 74.332497,208.897751 68.886253,218.599899 
z"/>
<path fill="#000000" opacity="1.000000" stroke="none" 
	d="
M318.049011,151.947662 
	C318.447235,152.287170 318.606750,152.370209 318.701355,152.500427 
	C323.353058,158.901794 329.632935,161.034683 337.329437,159.863220 
	C339.413910,159.545975 341.708099,160.278976 341.704803,162.810593 
	C341.700928,165.776047 338.906464,165.484863 337.154877,165.193237 
	C329.458527,163.911865 324.357819,167.454132 319.618195,173.077347 
	C314.914062,178.658463 309.399994,183.561401 304.184814,188.704666 
	C302.540466,190.326324 300.899841,192.033875 298.322479,192.193649 
	C294.276764,192.444412 292.100891,189.538361 293.623657,185.776627 
	C294.847534,182.753250 297.134430,180.545853 299.533142,178.467285 
	C303.563263,174.974960 307.136169,171.087479 311.069458,165.591736 
	C304.938690,166.506210 300.381104,163.484283 295.772675,162.949188 
	C292.335297,162.550079 286.772858,164.035065 284.073578,168.470383 
	C283.352661,169.654907 283.029144,171.631500 280.980499,171.061295 
	C279.255249,170.581116 278.921295,168.853424 278.947937,167.398071 
	C279.019104,163.514816 278.789673,160.002701 275.415161,157.136078 
	C274.033569,155.962433 274.059906,153.238235 274.596527,151.386765 
	C276.284546,145.562714 276.629761,140.251663 269.414154,136.358887 
	C274.450317,135.075531 277.382446,137.460907 278.782349,139.500259 
	C281.760468,143.838715 286.188843,146.588486 289.290588,150.648483 
	C290.120972,151.735413 291.819916,152.934052 290.135956,154.446823 
	C288.739990,155.700867 287.328430,154.761337 286.139923,153.750992 
	C284.641693,152.477310 283.580170,150.678650 280.944000,149.700760 
	C280.944000,152.824814 280.914001,155.710312 280.952515,158.594910 
	C280.990112,161.407944 282.540710,162.114365 284.914581,161.095886 
	C286.297699,160.502472 288.019501,160.376205 289.075867,159.637741 
	C293.769318,156.356796 298.379089,156.878967 303.326019,158.836533 
	C304.703278,159.381516 306.613922,159.356033 308.542175,157.622513 
	C305.539276,153.510010 301.699707,150.171051 298.100220,146.635193 
	C296.066559,144.637451 294.180511,142.615005 293.210449,139.818481 
	C292.419189,137.537338 293.275543,135.932129 294.807709,134.474533 
	C296.473907,132.889389 298.113770,133.543762 299.798035,134.567749 
	C307.046021,138.974274 312.299377,145.460434 318.049011,151.947662 
z"/>
<path fill="#000000" opacity="1.000000" stroke="none" 
	d="
M224.108612,159.771820 
	C227.811829,160.146622 230.805832,159.235870 233.609268,157.660797 
	C236.291473,156.153839 239.005875,155.186783 242.168777,155.880768 
	C244.935837,156.487930 245.964767,154.579285 246.748657,152.393661 
	C248.823685,146.608154 251.760071,141.230927 254.630371,135.819504 
	C255.753128,133.702744 257.213135,131.927917 259.249268,130.701065 
	C260.739960,129.802856 262.282623,128.019150 264.141785,129.612473 
	C265.936279,131.150375 265.475403,133.370697 264.597351,135.175354 
	C262.273132,139.952347 259.709198,144.612198 257.282959,149.340378 
	C256.384430,151.091400 255.603851,152.902985 254.642776,154.957855 
	C259.149200,157.020813 262.935303,159.716766 268.050659,160.080795 
	C273.901245,160.497147 277.814819,166.112183 277.048553,171.590088 
	C276.831909,173.138870 276.472260,174.687241 274.640106,174.930298 
	C272.508301,175.213135 271.357513,173.629913 271.406158,171.941879 
	C271.554749,166.788422 268.967896,165.433533 264.214905,164.708740 
	C260.464417,164.136841 256.684235,162.190918 253.265366,159.063461 
	C249.246796,163.982422 247.066925,169.540222 244.322342,174.708145 
	C240.036118,182.778976 236.183151,191.079086 231.953812,199.181412 
	C230.574020,201.824738 229.389709,204.187714 231.210785,207.070892 
	C231.828857,208.049454 232.179871,209.430130 230.912292,210.194916 
	C229.454910,211.074234 228.508759,209.949310 227.543808,208.948807 
	C222.511917,203.731445 222.222839,201.831253 225.335800,195.215515 
	C229.863129,185.593903 233.956757,175.759277 239.322861,166.551697 
	C240.433014,164.646851 240.951691,162.644333 241.343567,160.207611 
	C234.487549,161.920517 228.577972,166.256134 221.161575,165.392166 
	C220.635315,169.217041 222.481323,173.695679 216.078796,175.816269 
	C216.837692,169.039108 216.471222,162.824768 213.337158,157.417953 
	C212.742477,158.117981 213.550552,160.168747 211.486267,160.642700 
	C209.235580,160.321838 209.244370,158.489365 209.606186,156.894684 
	C210.757767,151.819077 210.885727,146.681000 211.047318,141.520813 
	C211.102020,139.774185 211.245300,137.444077 213.667953,137.364044 
	C215.799194,137.293640 215.893753,139.433548 216.357681,141.009155 
	C216.974731,143.104889 218.104996,145.732956 217.016754,147.315247 
	C213.568542,152.328934 218.563980,154.918427 219.713684,158.543182 
	C220.278641,160.324371 222.241058,159.685883 224.108612,159.771820 
z"/>
<path fill="#000000" opacity="1.000000" stroke="none" 
	d="
M163.278717,255.760498 
	C167.204681,261.346130 170.973709,266.605957 174.626740,271.945129 
	C175.824509,273.695801 177.158127,275.650421 174.716660,277.593994 
	C172.417099,277.193359 171.530258,275.285126 170.407486,273.707275 
	C154.630402,251.535828 138.858521,229.360565 123.141838,207.146317 
	C121.701881,205.111053 119.601501,202.929642 123.136284,199.033798 
	C136.638992,218.111786 149.857819,236.788681 163.278717,255.760498 
z"/>
<path fill="#000000" opacity="1.000000" stroke="none" 
	d="
M205.071625,183.945587 
	C199.983231,178.398941 194.183289,173.879181 191.074432,167.283478 
	C193.009308,165.220688 194.187180,166.624954 195.228882,167.531143 
	C203.277039,174.532242 210.074738,182.688721 216.633240,191.046921 
	C217.529022,192.188492 218.296494,193.967102 216.873322,195.102646 
	C214.942001,196.643661 213.898514,194.584198 212.902222,193.429993 
	C210.302353,190.418076 207.837708,187.289444 205.071625,183.945587 
z"/>
<path fill="#000000" opacity="1.000000" stroke="none" 
	d="
M255.590424,124.490479 
	C252.360016,122.109329 249.515915,119.840912 247.593033,116.651161 
	C247.062103,115.770454 246.761841,114.795166 247.338989,113.840881 
	C247.819962,113.045601 248.709656,112.667946 249.453476,113.242615 
	C254.160889,116.879623 258.848480,120.558182 262.038086,126.165085 
	C258.921906,127.270210 257.481323,125.740013 255.590424,124.490479 
z"/>
<path fill="#000000" opacity="1.000000" stroke="none" 
	d="
M137.370499,160.035431 
	C142.378128,160.273087 144.112396,162.135941 142.325455,164.913376 
	C141.028259,166.929581 138.884003,168.193268 136.837479,166.702942 
	C134.256332,164.823318 134.160782,162.282928 137.370499,160.035431 
z"/>
<path fill="#000000" opacity="1.000000" stroke="none" 
	d="
M343.648529,162.247360 
	C344.922546,159.657410 346.697906,159.260651 348.721313,160.543518 
	C349.941895,161.317352 350.302521,162.697723 349.815491,164.094208 
	C349.314728,165.530029 348.630829,167.131775 346.787994,166.872971 
	C344.486664,166.549789 343.404755,164.959259 343.648529,162.247360 
z"/>
</svg>